<svg width="1680" height="1680" viewBox="0 0 1680 1680" fill="none" xmlns="http://www.w3.org/2000/svg">
<rect width="1680" height="1680" fill="#2E2E2E"/>
<path fill-rule="evenodd" clip-rule="evenodd" d="M335 538.945C335 1040.23 840.004 1370 840.004 1370C840.004 1370 1345 1040.24 1345 538.949L1106.5 394.003L573.498 394L335 538.945ZM596.464 663.127C624.868 865.802 840.408 1065.99 840.408 1065.99C840.408 1065.99 1055.95 865.803 1084.35 663.128L1045.92 632.395L634.892 632.395L596.464 663.127Z" fill="#F1660B"/>
<path d="M1165.02 429.566L1106.5 394.003L573.498 394L335 538.945C335 698.892 386.413 841.377 456.43 961.26C531.1 873.934 579.036 801.53 615.961 741.091C606.919 715.428 600.131 689.298 596.463 663.127L634.892 632.395L681.644 632.395C756.369 516.332 829.814 465.217 1165.02 429.566Z" fill="#F1870B"/>
<path d="M1181.34 439.489C1159.93 509.704 1126.14 587.741 1082.58 661.716L1084.35 663.129C1055.95 865.804 840.408 1065.99 840.408 1065.99C840.408 1065.99 794.996 1023.81 743.115 958.577C708.705 965.707 673.187 966.604 636.853 959.935C469.703 929.259 725.609 1065.91 1027.54 1212.13C1171.22 1068.06 1345 833.017 1345 538.95L1181.34 439.489Z" fill="#8B1396"/>
<path d="M988.731 1249.63C1137.7 1110.89 1345 860.128 1345 538.949L1177.4 437.094C1233.92 673.948 1194.41 1129.44 919.924 1201.41C830.677 1224.81 875.425 1239.97 988.731 1249.63Z" fill="#A700AD"/>
<g style="mix-blend-mode:soft-light">
<path d="M1344.73 558.858C1336.33 873.741 1130.37 1118.84 984.185 1253.85C785.725 1152.11 666.056 1077.68 793.911 1101.14C1057.94 1149.6 1278.91 798.587 1344.73 558.858Z" fill="#DF00DD"/>
</g>
<path d="M666.048 394.001C518.729 611.789 570.03 913.896 638.673 1198.11C497.909 1053.05 335 823.661 335 538.945L573.498 394L666.048 394.001Z" fill="#FEB300"/>
<path d="M409.551 493.637C387.748 624.463 402.379 768.805 430.249 913.585C373.965 804.2 335 678.19 335 538.945L409.551 493.637Z" fill="#FFA800"/>
<path d="M840.646 1065.76C870.964 1093.57 907.808 1117.04 954.188 1135.35C989.031 1153.93 1025.43 1167.75 1062.95 1175.33C947.284 1299.95 840.004 1370 840.004 1370C840.004 1370 582.364 1201.76 435.13 922.949C433.847 726.746 591.473 565.944 591.473 565.944C585.142 590.049 587.281 623.677 596.74 662.906L596.464 663.128C624.868 865.802 840.407 1065.99 840.407 1065.99C840.407 1065.99 840.488 1065.91 840.646 1065.76Z" fill="#04548D"/>
<path d="M591.47 565.947C590.717 566.716 433.851 727.217 435.13 922.948C582.364 1201.76 840.004 1370 840.004 1370C840.004 1370 874.217 1347.66 924.833 1305.77C708.112 1096.1 470.424 865.534 591.47 565.947Z" fill="#0888C9"/>
<path d="M840.004 1370C840.004 1370 675.304 1262.45 534.019 1076.83C636.944 1174.35 775.591 1247.1 921.012 1308.92C872.503 1348.78 840.004 1370 840.004 1370Z" fill="#0AC5F4"/>
</svg>
