<svg width="1010" height="976" viewBox="0 0 1010 976" fill="none" xmlns="http://www.w3.org/2000/svg">
<path fill-rule="evenodd" clip-rule="evenodd" d="M9.15527e-05 144.945C4.74766e-05 646.233 505.004 976 505.004 976C505.004 976 1010 646.238 1010 144.95L771.501 0.00383051L238.498 0L9.15527e-05 144.945ZM261.464 269.128C289.868 471.802 505.408 671.987 505.408 671.987C505.408 671.987 720.946 471.804 749.351 269.129L710.921 238.395L299.892 238.395L261.464 269.128Z" fill="#F1660B"/>
<path d="M830.018 35.5669L771.501 0.00383051L238.498 0L0 144.945C-1.40635e-05 304.892 51.4131 447.378 121.43 567.26C196.1 479.935 244.036 407.531 280.961 347.091C271.919 321.429 265.131 295.299 261.463 269.128L299.892 238.395L346.644 238.396C421.369 122.332 494.814 71.2175 830.018 35.5669Z" fill="#F1870B"/>
<path d="M846.345 45.4897C824.927 115.704 791.137 193.742 747.584 267.717L749.351 269.129C720.946 471.804 505.408 671.987 505.408 671.987C505.408 671.987 459.996 629.812 408.115 564.578C373.705 571.708 338.187 572.604 301.853 565.936C134.703 535.259 390.609 671.91 692.543 818.128C836.218 674.057 1010 439.017 1010 144.95L846.345 45.4897Z" fill="#8B1396"/>
<path d="M653.731 855.631C802.697 716.895 1010 466.129 1010 144.95L842.404 43.0942C898.921 279.948 859.41 735.445 584.924 807.409C495.677 830.808 540.425 845.97 653.731 855.631Z" fill="#A700AD"/>
<g style="mix-blend-mode:soft-light">
<path d="M1009.73 164.858C1001.33 479.741 795.373 724.843 649.185 859.847C450.725 758.114 331.056 683.678 458.911 707.143C722.943 755.6 943.913 404.588 1009.73 164.858Z" fill="#DF00DD"/>
</g>
<path d="M331.048 0.00132219C183.729 217.79 235.03 519.896 303.673 804.108C162.909 659.048 -2.50339e-05 429.662 0 144.945L238.498 0L331.048 0.00132219Z" fill="#FEB300"/>
<path d="M74.551 99.6377C52.7484 230.464 67.3794 374.806 95.2488 519.585C38.9653 410.201 0 284.19 0 144.945L74.551 99.6377Z" fill="#FFA800"/>
<path d="M505.646 671.765C535.964 699.571 572.808 723.04 619.188 741.349C654.031 759.934 690.428 773.751 727.951 781.333C612.284 905.947 505.004 976.001 505.004 976.001C505.004 976.001 247.364 807.762 100.13 528.949C98.8475 332.746 256.473 171.944 256.473 171.944C250.142 196.05 252.281 229.677 261.74 268.907L261.464 269.128C289.868 471.803 505.407 671.987 505.407 671.987C505.407 671.987 505.488 671.913 505.646 671.765Z" fill="#04548D"/>
<path d="M256.47 171.947C255.717 172.717 98.8507 333.217 100.13 528.949C247.364 807.762 505.004 976 505.004 976C505.004 976 539.217 953.659 589.833 911.767C373.112 702.099 135.424 471.534 256.47 171.947Z" fill="#0888C9"/>
<path d="M505.004 976C505.004 976 340.304 868.452 199.019 682.827C301.944 780.355 440.591 853.099 586.012 914.918C537.503 954.779 505.004 976 505.004 976Z" fill="#0AC5F4"/>
</svg>
