<svg width="100" height="100" viewBox="0 0 100 100" fill="none" xmlns="http://www.w3.org/2000/svg">
<path d="M14.0625 1.5625C7.17031 1.5625 1.5625 7.17031 1.5625 14.0625V15.2344C1.5625 15.5297 1.57344 15.8266 1.59375 16.125L4.48437 56.5844C4.62656 58.5766 6.02969 60.1984 7.86875 60.7328L9.24688 93.8187C9.35469 96.4078 11.4703 98.4375 14.0625 98.4375C16.6547 98.4375 18.7703 96.4078 18.8797 93.8187L20.2578 60.7328C22.0969 60.1969 23.5 58.5766 23.6422 56.5844L26.5328 16.1234C26.5516 15.8281 26.5625 15.5312 26.5625 15.2344V14.0625C26.5625 7.17031 20.9547 1.5625 14.0625 1.5625ZM14.0625 95.3125C13.1516 95.3125 12.4062 94.5984 12.3687 93.6875L11.0031 60.9375H17.1203L15.7562 93.6875C15.7187 94.5984 14.9734 95.3125 14.0625 95.3125ZM18.9656 57.8125H9.15938C8.34375 57.8125 7.65937 57.175 7.6 56.3609L7.25781 51.5625H20.8656L20.5234 56.3609C20.4656 57.175 19.7812 57.8125 18.9656 57.8125ZM23.4375 15.2344C23.4375 15.4578 23.4297 15.6812 23.4141 15.9016L21.0891 48.4375H7.03594L4.71094 15.9047C4.69531 15.6812 4.6875 15.4578 4.6875 15.2344V14.0625C4.6875 8.89219 8.89219 4.6875 14.0625 4.6875C19.2328 4.6875 23.4375 8.89219 23.4375 14.0625V15.2344Z" fill="white"/>
<path d="M45.3125 1.5625C38.4203 1.5625 32.8125 7.17031 32.8125 14.0625V15.2344C32.8125 15.5297 32.8234 15.8266 32.8438 16.125L35.7344 56.5844C35.9078 59.025 37.9625 60.9375 40.4094 60.9375H40.625V74.1969C37.675 76.4641 35.9375 79.9672 35.9375 83.7234C35.9375 84.2219 35.9687 84.7203 36.0312 85.2156L37.125 93.9688C37.4422 96.5172 39.6188 98.4375 42.1875 98.4375H43.5109L45.0344 89.2984C45.0797 89.0234 45.5453 89.025 45.5906 89.2969L47.1141 98.4375H48.4375C51.0063 98.4375 53.1828 96.5172 53.5 93.9688L54.5937 85.2156C54.6562 84.7203 54.6875 84.2219 54.6875 83.7234C54.6875 79.9734 52.9531 76.4734 50 74.1984V60.9375H50.2156C52.6625 60.9375 54.7172 59.025 54.8922 56.5844L57.7828 16.1234C57.8016 15.8281 57.8125 15.5312 57.8125 15.2344V14.0625C57.8125 7.17031 52.2047 1.5625 45.3125 1.5625ZM46.9047 75.8562L47.6 76.3203C50.0813 77.9734 51.5625 80.7406 51.5625 83.7234C51.5625 84.0906 51.5391 84.4609 51.4938 84.8281L50.4 93.5812C50.3344 94.1016 50.0703 94.5547 49.6875 94.8672L48.6734 88.7828C48.3969 87.1344 46.9844 85.9375 45.3125 85.9375C43.6406 85.9375 42.2281 87.1344 41.9516 88.7844L40.9375 94.8672C40.5547 94.5547 40.2891 94.1016 40.225 93.5812L39.1313 84.8281C39.0859 84.4609 39.0625 84.0906 39.0625 83.7234C39.0625 80.7406 40.5437 77.9734 43.0687 76.2891L43.75 75.8234V60.9375H46.875V75L46.9047 75.8562ZM50.2156 57.8125H40.4109C39.5953 57.8125 38.9109 57.175 38.8516 56.3609L38.5078 51.5625H52.1156L51.7734 56.3609C51.7156 57.175 51.0312 57.8125 50.2156 57.8125ZM54.6875 15.2344C54.6875 15.4578 54.6797 15.6812 54.6641 15.9016L52.3391 48.4375H38.2844L35.9609 15.9047C35.9453 15.6812 35.9375 15.4578 35.9375 15.2344V14.0625C35.9375 8.89219 40.1422 4.6875 45.3125 4.6875C50.4828 4.6875 54.6875 8.89219 54.6875 14.0625V15.2344Z" fill="white"/>
<path d="M93.75 1.5625H89.0625V7.8125H85.9375V4.6875C85.9375 2.96406 84.5359 1.5625 82.8125 1.5625H79.6875C77.9641 1.5625 76.5625 2.96406 76.5625 4.6875V7.8125H73.4375C71.7141 7.8125 70.3125 9.21406 70.3125 10.9375V14.0625C70.3125 15.7859 71.7141 17.1875 73.4375 17.1875H76.5625V23.4375H75V32.8125H73.4375C70.8531 32.8125 68.75 34.9156 68.75 37.5V40.4703L67.3016 47.7141C67.225 48.0875 67.1875 48.4734 67.1875 48.8609C67.1875 51.6297 69.1328 53.9437 71.7266 54.5344L68.8125 83.6781C68.7703 84.0891 68.75 84.5047 68.75 84.9219V85.9375C68.75 92.8297 74.3578 98.4375 81.25 98.4375C88.1422 98.4375 93.75 92.8297 93.75 85.9375V84.9219C93.75 84.5047 93.7297 84.0906 93.6875 83.6766L90.7734 54.5328C93.3672 53.9438 95.3125 51.6297 95.3125 48.8609C95.3125 48.475 95.275 48.0891 95.1984 47.7172L93.75 40.4703V37.5C93.75 34.9156 91.6469 32.8125 89.0625 32.8125H87.5V23.4375H85.9375V17.1875H95.3125C97.0359 17.1875 98.4375 15.7859 98.4375 14.0625V6.25C98.4375 3.66562 96.3344 1.5625 93.75 1.5625ZM73.4375 14.0625V10.9375H76.5625V14.0625H73.4375ZM90.625 85.9375C90.625 91.1078 86.4203 95.3125 81.25 95.3125C76.0797 95.3125 71.875 91.1078 71.875 85.9375V84.9219C71.875 84.6094 71.8906 84.2984 71.9219 83.9875L74.8516 54.6875H87.6484L90.5781 83.9859C90.6094 84.2969 90.625 84.6078 90.625 84.9219V85.9375ZM89.4859 51.5625H73.0141C71.525 51.5625 70.3125 50.35 70.3125 48.8609C70.3125 48.6844 70.3297 48.5062 70.3656 48.3312L71.5937 42.1875H90.9312L92.1359 48.3328C92.1703 48.5063 92.1875 48.6828 92.1875 48.8609C92.1875 50.35 90.975 51.5625 89.4859 51.5625ZM90.625 37.5V39.0625H71.8609L71.875 37.5C71.875 36.6391 72.5766 35.9375 73.4375 35.9375H89.0625C89.9234 35.9375 90.625 36.6391 90.625 37.5ZM78.125 32.8125V26.5625H84.375V32.8125H78.125ZM79.6875 23.4375V4.6875H82.8125V23.4375H79.6875ZM85.9375 14.0625V10.9375H89.0625V14.0625H85.9375ZM95.3125 14.0625H92.1875V4.6875H93.75C94.6109 4.6875 95.3125 5.38906 95.3125 6.25V14.0625Z" fill="white"/>
<path d="M14.0625 7.8125C10.6156 7.8125 7.8125 10.6156 7.8125 14.0625C7.8125 17.5094 10.6156 20.3125 14.0625 20.3125C17.5094 20.3125 20.3125 17.5094 20.3125 14.0625C20.3125 10.6156 17.5094 7.8125 14.0625 7.8125ZM14.0625 17.1875C12.3391 17.1875 10.9375 15.7859 10.9375 14.0625C10.9375 12.3391 12.3391 10.9375 14.0625 10.9375C15.7859 10.9375 17.1875 12.3391 17.1875 14.0625C17.1875 15.7859 15.7859 17.1875 14.0625 17.1875Z" fill="#AF995C"/>
<path d="M45.3125 10.9375C46.1754 10.9375 46.875 10.2379 46.875 9.375C46.875 8.51206 46.1754 7.8125 45.3125 7.8125C44.4496 7.8125 43.75 8.51206 43.75 9.375C43.75 10.2379 44.4496 10.9375 45.3125 10.9375Z" fill="#AF995C"/>
<path d="M45.3125 17.1875C46.1754 17.1875 46.875 16.4879 46.875 15.625C46.875 14.7621 46.1754 14.0625 45.3125 14.0625C44.4496 14.0625 43.75 14.7621 43.75 15.625C43.75 16.4879 44.4496 17.1875 45.3125 17.1875Z" fill="#AF995C"/>
<path d="M45.3125 23.4375C46.1754 23.4375 46.875 22.7379 46.875 21.875C46.875 21.0121 46.1754 20.3125 45.3125 20.3125C44.4496 20.3125 43.75 21.0121 43.75 21.875C43.75 22.7379 44.4496 23.4375 45.3125 23.4375Z" fill="#AF995C"/>
<path d="M81.5625 78.125C82.4254 78.125 83.125 77.4254 83.125 76.5625C83.125 75.6996 82.4254 75 81.5625 75C80.6996 75 80 75.6996 80 76.5625C80 77.4254 80.6996 78.125 81.5625 78.125Z" fill="#AF995C"/>
<path d="M81.5625 84.375C82.4254 84.375 83.125 83.6754 83.125 82.8125C83.125 81.9496 82.4254 81.25 81.5625 81.25C80.6996 81.25 80 81.9496 80 82.8125C80 83.6754 80.6996 84.375 81.5625 84.375Z" fill="#AF995C"/>
<path d="M81.5625 90.625C82.4254 90.625 83.125 89.9254 83.125 89.0625C83.125 88.1996 82.4254 87.5 81.5625 87.5C80.6996 87.5 80 88.1996 80 89.0625C80 89.9254 80.6996 90.625 81.5625 90.625Z" fill="#AF995C"/>
</svg>
