<svg width="100" height="100" viewBox="0 0 100 100" fill="none" xmlns="http://www.w3.org/2000/svg">
<g clip-path="url(#clip0)">
<path d="M96.5402 80.3614L85.3344 69.1558L87.1608 67.3295C90.4075 64.0823 90.4075 58.799 87.1608 55.5522C85.5877 53.9793 83.4964 53.1131 81.2719 53.1131C80.532 53.1131 79.8073 53.211 79.1111 53.3968C81.2199 47.0672 81.7338 40.3233 80.5859 33.6596C79.1592 25.3784 75.2531 17.8492 69.29 11.8857C61.6249 4.22081 51.4328 -0.000390752 40.5914 2.713e-08C29.7496 0.000390806 19.5571 4.22237 11.891 11.8885C-3.93299 27.7127 -3.93299 53.4605 11.891 69.2846C17.8543 75.2477 25.3833 79.1539 33.6645 80.5808C35.9851 80.9808 38.3141 81.1793 40.6334 81.1791C44.9736 81.1791 49.2753 80.4827 53.4006 79.1087C53.2151 79.8045 53.1172 80.5285 53.1172 81.2676C53.1172 83.4921 53.9836 85.5834 55.5563 87.1563C57.1294 88.7291 59.2206 89.5953 61.4451 89.5953C63.6695 89.5953 65.7607 88.7291 67.3338 87.1563L69.1589 85.3311L73.5806 89.7528C73.8668 90.0388 74.242 90.1821 74.6169 90.1821C74.9919 90.1821 75.367 90.039 75.6533 89.7528C76.2256 89.1805 76.2256 88.2526 75.6533 87.6805L71.2316 83.2588L83.2623 71.2281L94.4679 82.4337C97.7321 85.6979 97.9209 90.8849 94.8976 94.243C93.3147 96.0015 91.1457 97.0041 88.7891 97.066C86.4339 97.1264 84.2149 96.2444 82.5486 94.5779L79.7447 91.7741C79.1724 91.2018 78.2445 91.2018 77.6724 91.7741C77.1 92.3464 77.0999 93.2741 77.6722 93.8464L80.4761 96.6502C82.6433 98.8173 85.5015 100 88.5545 99.9998C88.6582 99.9998 88.7624 99.9984 88.8665 99.9957C92.0347 99.9125 94.9504 98.5656 97.0762 96.2038C101.142 91.687 100.907 84.7281 96.5402 80.3614ZM34.1621 77.6928C26.4808 76.3692 19.496 72.7451 13.9635 67.2123C-0.718055 52.5307 -0.718055 28.6424 13.9635 13.9608C21.0759 6.84821 30.5326 2.93104 40.5914 2.93065C50.6501 2.93026 60.1059 6.84665 67.2173 13.958C72.7502 19.4909 76.3743 26.4755 77.6976 34.1568C78.9772 41.5855 78.0329 49.1204 74.9694 55.9658L55.9684 74.9671C49.1239 78.0292 41.59 78.9728 34.1621 77.6928ZM65.2611 85.0842C64.2418 86.1035 62.8865 86.6649 61.4451 86.6649C60.0036 86.6649 58.6483 86.1035 57.629 85.0842C56.6094 84.0648 56.0481 82.7094 56.0481 81.2678C56.0481 79.8262 56.6094 78.471 57.629 77.4515L77.4559 57.6245C78.4753 56.6051 79.8305 56.0438 81.2721 56.0438C82.7137 56.0438 84.0689 56.6051 85.0883 57.6245C87.1926 59.7288 87.1926 63.1526 85.0883 65.257L65.2611 85.0842Z" fill="white"/>
<path d="M62.5714 62.5667C74.691 50.4469 74.691 30.7266 62.5714 18.6068C50.4512 6.48718 30.7311 6.48718 18.6113 18.6068C6.49164 30.7266 6.49164 50.4469 18.6113 62.5667C24.6713 68.6265 32.6312 71.6564 40.5912 71.6564C48.5512 71.6564 56.5112 68.6265 62.5714 62.5667ZM20.6838 60.4944C9.70658 49.5174 9.70658 31.6565 20.6838 20.6793C26.1723 15.1908 33.3815 12.4466 40.5912 12.4466C47.8009 12.4466 55.0104 15.1908 60.4989 20.6793C71.4761 31.6565 71.4761 49.5174 60.4989 60.4944C49.5217 71.4712 31.6604 71.4714 20.6838 60.4944Z" fill="white"/>
<path d="M57.4325 22.636L52.3318 20.1081C51.1927 19.5424 49.9019 19.4549 48.697 19.8613C47.4928 20.2675 46.5184 21.119 45.9533 22.2587L37.0502 40.2201L33.5127 34.3033C32.1666 32.0509 29.2389 31.3136 26.9853 32.6599L22.0976 35.5817C19.8471 36.9295 19.1105 39.8573 20.4556 42.1083L30.1438 58.3132C31.0074 59.7544 32.559 60.6301 34.2266 60.6301C34.2884 60.6301 34.3505 60.6289 34.4124 60.6264L41.2821 60.3568C43.0235 60.2862 44.5842 59.2733 45.3554 57.7147L53.3467 41.597C53.7062 40.8719 53.4098 39.9927 52.6847 39.6331C51.9592 39.2734 51.0803 39.5698 50.7206 40.2951L42.7288 56.414C42.4326 57.0125 41.8329 57.4013 41.1653 57.4282L34.2979 57.6979C33.6262 57.7202 33.0025 57.3823 32.6584 56.8079L22.9712 40.6046C22.4542 39.7398 22.7381 38.6144 23.6023 38.0968L28.4886 35.1759C29.3544 34.6585 30.4794 34.9416 30.9966 35.8072L35.9126 44.0292C36.1877 44.4894 36.6967 44.7621 37.228 44.7414C37.7638 44.7203 38.2452 44.4083 38.4834 43.928L48.5792 23.5608C48.7964 23.1223 49.171 22.7949 49.6337 22.6387C50.0954 22.4826 50.5909 22.5166 51.0293 22.7339L56.1306 25.262C56.569 25.4795 56.8965 25.8541 57.0526 26.3168C57.2085 26.779 57.1749 27.2742 56.9575 27.712L53.3136 35.0606C52.9541 35.7857 53.2505 36.665 53.9756 37.0245C54.7009 37.3836 55.5798 37.0876 55.9397 36.3627L59.5831 29.0147C60.1488 27.8756 60.2363 26.5848 59.8299 25.3801C59.4237 24.1757 58.5724 23.2013 57.4325 22.636Z" fill="#AF995C"/>
</g>
<defs>
<clipPath id="clip0">
<rect width="100" height="100" fill="white"/>
</clipPath>
</defs>
</svg>
