<svg width="100" height="100" viewBox="0 0 100 100" fill="none" xmlns="http://www.w3.org/2000/svg">
<g clip-path="url(#clip0)">
<path d="M49.999 19.9111C51.0775 19.9111 51.9521 19.0365 51.9521 17.958V8.00879C51.9521 6.93027 51.0777 6.05566 49.999 6.05566C48.9203 6.05566 48.0459 6.93008 48.0459 8.00879V17.958C48.0461 19.0365 48.9205 19.9111 49.999 19.9111Z" fill="#AF995C"/>
<path d="M35.3148 23.1196C35.6861 23.7088 36.3203 24.0315 36.9689 24.0315C37.3248 24.0315 37.6852 23.9342 38.0084 23.7305C38.9209 23.1555 39.1943 21.9494 38.6193 21.0368L33.4154 12.7799C32.8402 11.8674 31.6342 11.5938 30.7219 12.169C29.8094 12.744 29.5359 13.95 30.1109 14.8627L35.3148 23.1196Z" fill="#AF995C"/>
<path d="M61.9961 23.7312C62.3193 23.9345 62.6793 24.0316 63.0348 24.0316C63.6836 24.0316 64.3182 23.7085 64.6895 23.1189L69.8879 14.862C70.4625 13.9491 70.1885 12.7435 69.2756 12.1685C68.3623 11.5941 67.157 11.8683 66.5822 12.7808L61.3838 21.0376C60.8092 21.9507 61.0834 23.1564 61.9961 23.7312Z" fill="#AF995C"/>
<path d="M99.3703 52.0374L95.9768 46.0422C95.4451 45.1032 94.2533 44.7731 93.3152 45.3047C92.3764 45.8362 92.0463 47.0278 92.5777 47.9663L95.9697 53.9588C96.1396 54.26 96.0955 54.5504 96.0541 54.6967C96.0143 54.8375 95.9045 55.0975 95.6174 55.2561L90.3873 58.1532C89.9227 58.4098 89.3162 58.2477 89.0629 57.8008L87.7342 55.4504C87.7287 55.4399 87.7225 55.4301 87.7168 55.4198L73.9805 31.1241C73.8107 30.825 73.8537 30.5383 73.8943 30.394C73.9336 30.2543 74.0426 29.9963 74.3297 29.8375L79.566 26.9399C80.0365 26.6793 80.6281 26.8375 80.8854 27.2934L83.9467 32.7022C84.4781 33.6411 85.6701 33.9709 86.6084 33.4399C87.5473 32.9086 87.8773 31.7168 87.3461 30.7782L84.2861 25.3717C82.9811 23.0581 80.0158 22.2282 77.6756 23.5217L72.4395 26.4194C71.3064 27.0456 70.4879 28.0805 70.1348 29.3342C69.8016 30.5163 69.9207 31.7502 70.4662 32.8333L67.5818 33.6692C66.3531 34.0247 65.6074 34.2174 65.1936 34.2174C65.1918 34.2174 65.1902 34.2174 65.1887 34.2174C64.9037 34.2165 64.593 34.1077 63.7061 33.7717C63.3037 33.6194 62.8027 33.4295 62.1869 33.2147L57.0766 31.4282C54.2502 30.4411 52.9754 30.4942 51.1285 30.6627L42.4145 31.4426C38.442 31.7946 35.9094 32.6907 34.5113 34.2448L29.5453 32.8059C30.0797 31.7276 30.1943 30.5055 29.8643 29.3342C29.5111 28.0813 28.6932 27.0465 27.5613 26.4204L22.3281 23.5213C19.9859 22.2266 17.0189 23.0569 15.7137 25.37L0.634767 52.0346C-0.0107409 53.1711 -0.170507 54.493 0.185353 55.7569C0.538868 57.012 1.35723 58.0479 2.48809 58.6733L7.72129 61.5719C8.46953 61.9856 9.28242 62.1821 10.0846 62.1821C11.7887 62.1821 13.4453 61.2956 14.3357 59.7235L14.8887 58.7454C16.3977 59.4096 17.6646 60.3747 18.5281 61.5172C17.6848 62.5028 17.1535 63.719 17.0045 65.0418C16.8076 66.7913 17.3018 68.5077 18.3959 69.8758C19.4807 71.2323 21.0318 72.0881 22.7664 72.2897C22.5828 74.0243 23.0789 75.7239 24.1646 77.0768C25.2869 78.4799 26.873 79.2985 28.5322 79.4916C28.3494 81.2237 28.8438 82.9217 29.9262 84.2754C31.0104 85.6348 32.5619 86.4924 34.2982 86.694C34.1145 88.4299 34.6105 90.1305 35.6963 91.4836C36.9904 93.1016 38.901 93.944 40.8297 93.9438C42.2695 93.9438 43.7195 93.4743 44.9301 92.5075L49.0195 89.2352C49.3443 88.976 49.6395 88.6895 49.9049 88.3809L52.2408 90.2469C53.4488 91.211 54.8955 91.6793 56.3334 91.6792C58.2631 91.679 60.1768 90.8356 61.4727 89.2161C62.1557 88.3622 62.5881 87.3875 62.7834 86.3815C63.4664 86.6178 64.1875 86.7399 64.9227 86.7397C65.1691 86.7397 65.4172 86.726 65.666 86.6985C67.416 86.5042 68.9809 85.6436 70.0682 84.2799C71.1559 82.9249 71.652 81.2254 71.4686 79.4911C73.1266 79.2975 74.7135 78.4791 75.8391 77.0766C76.9602 75.6749 77.4102 73.9491 77.234 72.2893C78.9676 72.0874 80.518 71.2317 81.6002 69.8784C82.6951 68.5139 83.1914 66.8 82.9975 65.052C82.8502 63.725 82.3186 62.5047 81.4736 61.5165C82.3346 60.3743 83.599 59.4081 85.109 58.7442L85.6631 59.7243C86.5529 61.2958 88.2088 62.1819 89.9133 62.1819C90.7158 62.1817 91.5295 61.9852 92.2785 61.5711L97.5088 58.6739C98.6393 58.0489 99.4572 57.0145 99.8121 55.7616C100.17 54.4989 100.013 53.177 99.3703 52.0374ZM10.9361 57.7999C10.6822 58.2483 10.0754 58.41 9.6127 58.154L4.37969 55.2555C4.09395 55.0973 3.98496 54.8383 3.94512 54.6979C3.9043 54.5524 3.86074 54.2635 4.03301 53.9608L19.1143 27.2909C19.2869 26.9848 19.6123 26.8133 19.9502 26.8133C20.1146 26.8133 20.2818 26.8538 20.4361 26.9391L25.6678 29.8372C25.6684 29.8375 25.6689 29.8379 25.6695 29.8381C25.9559 29.9965 26.0646 30.2545 26.1041 30.3942C26.1447 30.5385 26.1877 30.8252 26.016 31.1276L10.9361 57.7999ZM25.1889 67.8506C24.6381 68.2918 23.9426 68.4913 23.2318 68.4122C22.5207 68.3333 21.8869 67.9868 21.4467 67.4364C21.0055 66.8846 20.8066 66.1893 20.8865 65.4788C20.966 64.7711 21.3127 64.1405 21.8662 63.7L29.1783 57.8551C30.326 56.9389 32.0059 57.1274 32.923 58.2729C33.3641 58.8243 33.5631 59.5184 33.4834 60.2268C33.4041 60.9329 33.0572 61.5629 32.5068 62.0008C32.4947 62.0104 32.4844 62.0211 32.4727 62.0311L25.1906 67.8493C25.19 67.8497 25.1895 67.8502 25.1889 67.8506ZM27.2131 74.6346C26.7723 74.0852 26.573 73.3928 26.6518 72.685C26.7305 71.9766 27.0775 71.343 27.6287 70.901L27.6293 70.9006C27.6297 70.9004 27.6301 70.9 27.6305 70.8999C27.6307 70.8999 27.6307 70.8997 27.6309 70.8995L38.1633 62.4846C39.3107 61.5682 40.991 61.7553 41.908 62.9024C42.3484 63.453 42.5475 64.1463 42.4688 64.8545C42.3898 65.5635 42.0418 66.1971 41.4893 66.6385L30.9596 75.0502C29.8107 75.967 28.1311 75.7821 27.2131 74.6346ZM34.7635 82.8163C34.0525 82.7374 33.4193 82.3905 32.9785 81.8377C32.5381 81.2872 32.3391 80.5938 32.4178 79.8856C32.4967 79.1772 32.8441 78.5442 33.3959 78.1028C33.3963 78.1024 33.3969 78.102 33.3973 78.1016L40.6859 72.279C40.6945 72.2723 40.7039 72.2667 40.7125 72.2598C41.857 71.3436 43.5367 71.5301 44.4547 72.6743C44.8959 73.2258 45.0949 73.9211 45.015 74.6317C44.9354 75.3393 44.5887 75.97 44.0354 76.4104L36.7234 82.2551C36.1709 82.6963 35.4746 82.8948 34.7635 82.8163ZM47.56 84.4018C47.4809 85.1102 47.1338 85.7424 46.5811 86.1838L42.4914 89.4567C41.3424 90.3737 39.6627 90.1891 38.7451 89.0415C38.3043 88.4924 38.1049 87.7995 38.1836 87.0903C38.2623 86.3811 38.609 85.7485 39.1592 85.309C39.1598 85.3086 39.1605 85.3081 39.1611 85.3077L43.2498 82.0393C43.252 82.0375 43.2543 82.0362 43.2564 82.0346C44.4043 81.1186 46.0842 81.3063 47.0014 82.4524C47.4406 83.002 47.6393 83.694 47.56 84.4018ZM78.5518 67.4362C78.1115 67.9866 77.4775 68.3333 76.7666 68.4122C76.0563 68.492 75.3604 68.292 74.8096 67.8506C74.8094 67.8504 74.809 67.8502 74.8086 67.85C74.8084 67.8499 74.808 67.8497 74.8078 67.8495L69.5816 63.6739C68.7387 63.0004 67.5098 63.1379 66.8367 63.9805C66.1635 64.8231 66.3008 66.0522 67.1434 66.7254L72.3678 70.8997C73.5139 71.8174 73.7027 73.494 72.7906 74.6344C71.8703 75.7813 70.1904 75.9678 69.0436 75.0493L63.3746 70.5254C62.5316 69.8528 61.3027 69.9909 60.6299 70.8338C59.9572 71.6768 60.0951 72.9057 60.9383 73.5786L66.6045 78.1002C67.1566 78.5424 67.5041 79.1764 67.583 79.8856C67.6617 80.5934 67.4625 81.286 67.018 81.8397C66.5787 82.3905 65.9455 82.7372 65.2348 82.8163C64.5232 82.8946 63.827 82.6959 63.2766 82.2567L60.4559 80.0008C60.451 79.9969 60.4467 79.9928 60.4418 79.9889L58.0586 78.0836L57.6131 77.7274C56.7703 77.0536 55.5414 77.1905 54.868 78.0327C54.7838 78.1381 54.7121 78.2495 54.6531 78.3651C54.3703 78.9178 54.375 79.5661 54.6404 80.1096C54.7633 80.3614 54.9402 80.5913 55.1734 80.7778L58.0096 83.046C59.1481 83.9653 59.3342 85.6362 58.4227 86.7758C57.5053 87.9225 55.8252 88.1098 54.6781 87.1948L51.4604 84.6241C51.5943 82.9524 51.099 81.3221 50.0514 80.0122C49.4002 79.1983 48.5926 78.5819 47.7057 78.1684C48.3557 77.2666 48.7684 76.2073 48.8965 75.0682C49.0934 73.319 48.5992 71.6026 47.5031 70.2321C46.8518 69.4204 46.0451 68.8053 45.16 68.3928C45.8111 67.4883 46.2238 66.4268 46.3508 65.2862C46.5451 63.5409 46.0506 61.8278 44.9584 60.462C43.0791 58.1124 39.901 57.3981 37.2559 58.5208C37.0441 57.5485 36.6115 56.6313 35.9729 55.8327C33.7115 53.0069 29.5705 52.5446 26.7402 54.8028L21.5105 58.9831C20.3279 57.4739 18.7203 56.2223 16.8195 55.3297L27.5772 36.3022L33.3049 37.9618C33.3311 38.2682 33.3807 38.5905 33.4637 38.9319C34.8502 44.6327 40.099 47.2889 47.1621 45.8657C53.1133 44.6682 55.5633 46.452 60.4428 50.0053C60.949 50.3739 61.475 50.7569 62.0256 51.1512C65.5348 53.6688 69.2848 56.628 71.799 58.6336L78.1389 63.7004C78.6897 64.1399 79.0363 64.7727 79.115 65.4825C79.1938 66.1917 78.9945 66.8846 78.5518 67.4362ZM78.491 58.9819L74.2365 55.5817C71.6875 53.5483 67.8846 50.5477 64.3016 47.977C63.7586 47.5881 63.2408 47.211 62.7424 46.8481C57.6826 43.1635 54.0258 40.5014 46.3914 42.0368C44.0547 42.5077 38.4875 43.0582 37.2596 38.0098C37.0865 37.2971 37.2623 37.0522 37.3371 36.9477C37.5982 36.5836 38.649 35.6975 42.7602 35.3334L51.4834 34.5528C52.9049 34.4231 53.618 34.3579 55.7875 35.1157L60.8984 36.9024C61.4666 37.1008 61.9209 37.2727 62.3219 37.4247C64.7828 38.3569 65.435 38.3567 68.668 37.4209L72.4359 36.3291L83.1791 55.3309C81.2777 56.2229 79.6717 57.4735 78.491 58.9819Z" fill="white"/>
<path d="M89.9551 41.3279C91.0336 41.3279 91.9082 40.4505 91.9082 39.3718C91.9082 38.2931 91.0336 37.4187 89.9551 37.4187C88.8766 37.4187 88.002 38.2933 88.002 39.3718V39.3773C88.002 40.456 88.8766 41.3279 89.9551 41.3279Z" fill="#AF995C"/>
</g>
<defs>
<clipPath id="clip0">
<rect width="100" height="100" fill="white"/>
</clipPath>
</defs>
</svg>
