<svg width="100" height="100" viewBox="0 0 100 100" fill="none" xmlns="http://www.w3.org/2000/svg">
<path d="M81.2807 21.947L81.5326 22.6215C81.7526 23.2103 82.3112 23.574 82.9049 23.574C83.0752 23.574 83.2485 23.5441 83.4174 23.4808C84.1752 23.1976 84.5602 22.3537 84.2768 21.5961L84.0252 20.9226C83.6879 20.0183 82.9782 19.3031 82.0778 18.9607C81.3223 18.6734 80.4756 19.0529 80.1879 19.8092C79.9002 20.5654 80.2801 21.4115 81.0364 21.6992C81.1487 21.7416 81.2375 21.8316 81.2807 21.947Z" fill="white"/>
<path d="M80.6738 29.2423C81.0609 29.2423 81.4477 29.0897 81.7355 28.7868C82.242 28.2544 82.7713 27.7516 83.3094 27.2923C83.9246 26.7671 83.9975 25.8423 83.4723 25.227C82.9471 24.612 82.0227 24.5387 81.407 25.0643C80.7924 25.5891 80.1887 26.1624 79.6127 26.7678C79.0553 27.354 79.0785 28.2813 79.6647 28.8387C79.9481 29.1085 80.3111 29.2423 80.6738 29.2423Z" fill="white"/>
<path d="M56.2885 84.1665C55.5785 84.5546 54.8752 84.9753 54.1979 85.4167C53.5199 85.8585 53.3287 86.7659 53.7705 87.4437C54.0514 87.8745 54.5205 88.1089 54.999 88.1089C55.2732 88.1089 55.5506 88.0319 55.7975 87.871C56.4119 87.4706 57.05 87.089 57.6939 86.7368C58.4039 86.3487 58.6646 85.4587 58.2766 84.7487C57.8883 84.0392 56.9978 83.7782 56.2885 84.1665Z" fill="white"/>
<path d="M77.4408 70.8374C77.0711 70.1175 76.1883 69.8339 75.4686 70.2032C74.7488 70.5728 74.465 71.4558 74.8346 72.1755C75.2086 72.904 75.609 73.6179 76.0242 74.2972C76.3004 74.7489 76.782 74.998 77.2752 74.998C77.5357 74.998 77.7996 74.9284 78.0381 74.7825C78.7281 74.3605 78.9455 73.4587 78.5234 72.7685C78.1461 72.1513 77.7818 71.5015 77.4408 70.8374Z" fill="white"/>
<path d="M44.1867 84.4317C43.4836 84.0313 42.5893 84.2768 42.1889 84.9799C41.7887 85.683 42.034 86.5774 42.7371 86.9776C43.3748 87.3407 44.0063 87.7332 44.6141 88.1444C44.8656 88.3147 45.151 88.3961 45.4334 88.3961C45.9033 88.3961 46.3651 88.1703 46.6481 87.7518C47.1014 87.0817 46.9256 86.1711 46.2555 85.7178C45.5858 85.2645 44.8895 84.8319 44.1867 84.4317Z" fill="white"/>
<path d="M54.3867 5.85938H52.0631C51.2539 5.85938 50.5982 6.51523 50.5982 7.32422C50.5982 8.1332 51.2539 8.78906 52.0631 8.78906H54.3867C55.1959 8.78906 55.8516 8.1332 55.8516 7.32422C55.8516 6.51523 55.1957 5.85938 54.3867 5.85938Z" fill="white"/>
<path d="M50.3381 88.3804L50.2848 88.4286C50.1834 88.52 50.074 88.5391 50 88.5391C49.9301 88.5391 49.8611 88.5218 49.8004 88.4889C49.0891 88.1034 48.2 88.3679 47.8147 89.0794C47.4293 89.7907 47.6936 90.6798 48.4051 91.0651C48.8928 91.3294 49.4442 91.4688 50 91.4688C50.8315 91.4688 51.6297 91.1614 52.25 90.6014L52.2926 90.563C52.8953 90.0233 52.9465 89.0973 52.4068 88.4946C51.8672 87.8921 50.9414 87.8405 50.3381 88.3804Z" fill="white"/>
<path d="M45.0914 8.81278C45.1688 8.81278 45.2473 8.80673 45.3262 8.79384C45.3469 8.79052 45.3678 8.78895 45.3901 8.78895C45.3901 8.78895 45.3901 8.78895 45.3902 8.78895H47.4156C48.2246 8.78895 48.8805 8.13309 48.8805 7.32411C48.8805 6.51513 48.2246 5.85927 47.4156 5.85927H45.3918C45.2143 5.85399 45.0356 5.87333 44.8604 5.90165C44.0617 6.03036 43.5184 6.78212 43.6473 7.58075C43.7631 8.30067 44.385 8.81278 45.0914 8.81278Z" fill="white"/>
<path d="M57.3156 13.3184C57.6021 13.7141 58.0496 13.9245 58.5033 13.9245C58.801 13.9245 59.1016 13.8341 59.3611 13.6462C60.0164 13.1718 60.1631 12.2559 59.6889 11.6007C59.2758 11.03 58.8961 10.4237 58.5609 9.79891C58.1783 9.08622 57.2896 8.81844 56.5775 9.20106C55.8648 9.58368 55.5969 10.4716 55.9795 11.1845C56.3764 11.9241 56.826 12.6423 57.3156 13.3184Z" fill="white"/>
<path d="M43.2076 9.67761C42.5069 9.2739 41.611 9.51492 41.2072 10.2161C40.8543 10.829 40.4569 11.4233 40.0258 11.9827C39.5319 12.6235 39.6512 13.5432 40.2918 14.0372C40.5582 14.2425 40.8727 14.3419 41.185 14.3419C41.6238 14.3419 42.0578 14.1456 42.3463 13.7712C42.8572 13.1083 43.3281 12.404 43.7461 11.678C44.1498 10.977 43.9086 10.0813 43.2076 9.67761Z" fill="white"/>
<path d="M74.5262 21.875C75.192 21.9142 75.8805 21.9341 76.5721 21.9341C76.6983 21.9341 76.824 21.9335 76.9502 21.9322C77.7592 21.924 78.4082 21.2613 78.4 20.4525C78.3916 19.6433 77.7295 18.9871 76.9201 19.0027C76.1701 19.0101 75.419 18.9929 74.6988 18.9503C73.8877 18.9027 73.1979 19.5187 73.1502 20.3263C73.1025 21.1339 73.7186 21.8273 74.5262 21.875Z" fill="white"/>
<path d="M71.3006 44.0397C71.1504 44.8151 71.0182 45.6122 70.9074 46.4091C70.7963 47.2104 71.3555 47.9503 72.1568 48.0614C72.2252 48.071 72.293 48.0755 72.3601 48.0755C73.0797 48.0755 73.7072 47.5448 73.8092 46.812C73.9127 46.0665 74.0363 45.3212 74.1767 44.5968C74.3305 43.8026 73.8115 43.0341 73.0172 42.88C72.2215 42.7263 71.4543 43.2456 71.3006 44.0397Z" fill="white"/>
<path d="M74.7772 83.4503C75.5059 83.5388 76.2397 83.657 76.958 83.8017C77.0557 83.8214 77.1529 83.8308 77.2486 83.8308C77.9318 83.8308 78.5432 83.3503 78.6832 82.6548C78.8428 81.8617 78.3293 81.0894 77.5363 80.9296C76.7436 80.7701 75.9342 80.6398 75.1305 80.5421C74.326 80.4456 73.5971 81.0165 73.4996 81.8197C73.4022 82.6226 73.9742 83.3527 74.7772 83.4503Z" fill="white"/>
<path d="M82.3754 81.9359C82.2945 82.0884 82.1182 82.1802 81.9506 82.1533C81.1506 82.0265 80.4016 82.5734 80.2758 83.3726C80.15 84.1718 80.6959 84.9216 81.4951 85.0474C81.6646 85.0741 81.8379 85.0876 82.0098 85.0876C83.2496 85.0876 84.3812 84.4062 84.9633 83.3091C85.3424 82.5945 85.0705 81.7077 84.3561 81.3286C83.6406 80.949 82.7545 81.2212 82.3754 81.9359Z" fill="white"/>
<path d="M81.1162 76.3123C80.5828 75.7041 79.657 75.6437 79.049 76.1773C78.441 76.7109 78.3805 77.6363 78.9141 78.2445C79.4631 78.8703 80.0406 79.4667 80.6305 80.0179C80.9129 80.2816 81.2717 80.4122 81.6299 80.4122C82.0217 80.4122 82.4125 80.256 82.7008 79.9472C83.253 79.356 83.2213 78.429 82.6301 77.8767C82.1108 77.3916 81.6016 76.8652 81.1162 76.3123Z" fill="white"/>
<path d="M73.436 41.2119C73.5826 41.2582 73.7313 41.2803 73.8774 41.2803C74.4994 41.2803 75.0768 40.8808 75.2738 40.256C75.4994 39.5408 75.7475 38.8316 76.0106 38.148C76.3012 37.393 75.925 36.5453 75.1697 36.2547C74.4149 35.9635 73.567 36.3404 73.2766 37.0953C72.9918 37.835 72.7238 38.6016 72.4799 39.374C72.2363 40.1455 72.6645 40.9683 73.436 41.2119Z" fill="white"/>
<path d="M72.9228 67.7301C73.1361 68.3305 73.7006 68.7053 74.3033 68.7053C74.466 68.7053 74.6314 68.6779 74.7933 68.6205C75.5557 68.3498 75.9543 67.5125 75.684 66.75C75.4383 66.0578 75.2084 65.342 75.0012 64.6221C74.7771 63.8445 73.965 63.3959 73.1881 63.6199C72.4107 63.8439 71.9621 64.6557 72.1859 65.433C72.4096 66.2098 72.6576 66.9824 72.9228 67.7301Z" fill="white"/>
<path d="M72.8094 61.9423C73.6068 61.8066 74.1434 61.0502 74.0076 60.2525C73.8836 59.5236 73.7766 58.7753 73.69 58.0291C73.5965 57.2255 72.8701 56.6496 72.066 56.7431C71.2623 56.8365 70.6865 57.5636 70.7799 58.3671C70.8727 59.1646 70.9869 59.9642 71.1195 60.7439C71.241 61.4584 71.8607 61.9632 72.5619 61.9632C72.6434 61.9632 72.7262 61.9566 72.8094 61.9423Z" fill="white"/>
<path d="M70.3449 18.3407C69.6275 18.1753 68.9233 17.9759 68.2516 17.7482C67.4861 17.489 66.6539 17.8987 66.394 18.6652C66.1342 19.4314 66.5445 20.263 67.3108 20.5228C68.0748 20.782 68.8742 21.0081 69.6867 21.1954C69.7973 21.221 69.908 21.2331 70.017 21.2331C70.6838 21.2331 71.2869 20.7747 71.4432 20.097C71.6252 19.3089 71.1332 18.5224 70.3449 18.3407Z" fill="white"/>
<path d="M72.011 49.7749C71.1975 49.7419 70.5238 50.3786 70.4953 51.187C70.4752 51.7515 70.4654 52.3235 70.4656 52.887C70.4656 53.1196 70.4672 53.3517 70.4705 53.5833C70.4822 54.3851 71.1356 55.0271 71.9348 55.0271C71.9418 55.0271 71.949 55.0271 71.9563 55.0269C72.7652 55.0152 73.4113 54.3499 73.3998 53.5411C73.3967 53.3237 73.3953 53.1058 73.3953 52.8866C73.3951 52.3573 73.4045 51.8202 73.4233 51.2905C73.4518 50.4819 72.8196 49.8034 72.011 49.7749Z" fill="white"/>
<path d="M67.9959 83.4288C68.0508 83.4288 68.1063 83.4256 68.1621 83.4194C68.8912 83.3372 69.6324 83.2827 70.3649 83.2579C71.1734 83.2303 71.8066 82.5526 71.7791 81.7442C71.7514 80.9356 71.0775 80.3028 70.2652 80.3299C69.4566 80.3575 68.6385 80.4174 67.8336 80.5083C67.0297 80.5989 66.4516 81.3243 66.5422 82.128C66.6266 82.8762 67.2604 83.4288 67.9959 83.4288Z" fill="white"/>
<path d="M77.8807 34.1177C78.241 33.4657 78.625 32.829 79.0223 32.2255C79.467 31.5497 79.2797 30.6413 78.6039 30.1966C77.9279 29.7517 77.0199 29.939 76.575 30.6147C76.1363 31.2812 75.7129 31.9831 75.3164 32.7011C74.9252 33.4091 75.1821 34.3003 75.8903 34.6915C76.1147 34.8155 76.3578 34.8745 76.5973 34.8745C77.1131 34.8745 77.6137 34.6013 77.8807 34.1177Z" fill="white"/>
<path d="M26.9147 37.6033C26.6346 36.8443 25.7922 36.4554 25.0334 36.7359C24.2744 37.0158 23.8859 37.8581 24.166 38.6171C24.4201 39.3064 24.6584 40.0191 24.874 40.7359C25.0649 41.3699 25.6467 41.779 26.2762 41.779C26.416 41.779 26.558 41.7589 26.6988 41.7165C27.4736 41.4835 27.9127 40.6665 27.6795 39.8917C27.4467 39.1181 27.1895 38.3482 26.9147 37.6033Z" fill="white"/>
<path d="M27.0967 43.39C26.3006 43.5339 25.7721 44.2962 25.9162 45.0921C26.0482 45.8222 26.1629 46.5691 26.2568 47.3118C26.3506 48.0521 26.9811 48.5931 27.7084 48.5931C27.7695 48.5931 27.8316 48.5892 27.8941 48.5814C28.6967 48.4798 29.265 47.7468 29.1637 46.9442C29.0631 46.1501 28.9404 45.3515 28.7992 44.5706C28.6549 43.7743 27.8914 43.2456 27.0967 43.39Z" fill="white"/>
<path d="M32.1604 20.6951C32.9324 20.4531 33.3621 19.6312 33.1201 18.8593C32.8782 18.0873 32.0565 17.6574 31.2844 17.8996C30.6086 18.1113 29.8989 18.2953 29.1752 18.4462C28.3832 18.6115 27.8752 19.3873 28.0405 20.1794C28.1846 20.8705 28.7938 21.3455 29.4729 21.3455C29.5721 21.3455 29.6727 21.3353 29.7737 21.3142C30.5905 21.1437 31.3936 20.9353 32.1604 20.6951Z" fill="white"/>
<path d="M28.017 55.5485C28.0297 55.5487 28.0424 55.5489 28.0549 55.5489C28.8467 55.5489 29.4985 54.9174 29.5186 54.1213C29.5289 53.7135 29.5342 53.2983 29.5342 52.8872C29.5342 52.5003 29.5295 52.1094 29.5203 51.7255C29.501 50.9167 28.8367 50.2813 28.0207 50.2962C27.2119 50.3157 26.5721 50.987 26.5914 51.7958C26.6 52.1565 26.6045 52.5237 26.6045 52.8872C26.6045 53.2737 26.5996 53.6637 26.5899 54.0469C26.5694 54.8557 27.2084 55.528 28.017 55.5485Z" fill="white"/>
<path d="M17.0567 27.613C17.5844 28.086 18.103 28.6019 18.5983 29.146C18.8871 29.4634 19.2838 29.6247 19.6819 29.6247C20.0338 29.6247 20.3867 29.4985 20.6676 29.2431C21.2658 28.6984 21.3094 27.772 20.7649 27.1737C20.2033 26.5567 19.6137 25.9708 19.0127 25.4319C18.4104 24.8917 17.4844 24.9423 16.9442 25.5444C16.4041 26.1468 16.4545 27.0728 17.0567 27.613Z" fill="white"/>
<path d="M18.2848 23.1102L18.7193 21.9467C18.7559 21.8492 18.8176 21.7883 18.8631 21.7543C19.5115 21.2703 19.6447 20.3525 19.1607 19.7041C18.677 19.0559 17.759 18.9227 17.1107 19.4064C16.5936 19.7924 16.2008 20.3164 15.9748 20.9215L15.5402 22.0848C15.2572 22.8426 15.642 23.6865 16.3998 23.9695C16.5688 24.0326 16.7418 24.0625 16.9123 24.0625C17.5061 24.0629 18.0648 23.6992 18.2848 23.1102Z" fill="white"/>
<path d="M24.8039 18.9753C24.0777 19.0061 23.3223 19.0124 22.5807 18.9934C21.7735 18.9766 21.0996 19.6116 21.0789 20.4204C21.0582 21.2292 21.6971 21.9014 22.5059 21.9221C22.8125 21.9299 23.1201 21.9338 23.4283 21.9338C23.9322 21.9338 24.4371 21.9233 24.9289 21.9022C25.7371 21.8678 26.3645 21.1846 26.3301 20.3762C26.2953 19.5682 25.6117 18.9405 24.8039 18.9753Z" fill="white"/>
<path d="M23.2637 83.7323C23.3512 83.7323 23.44 83.7243 23.5291 83.7081C24.2502 83.5761 24.9861 83.4706 25.7164 83.3948C26.5211 83.3112 27.1057 82.5911 27.0221 81.7864C26.9383 80.9817 26.2174 80.3964 25.4137 80.4807C24.6084 80.5643 23.7969 80.6805 23.0016 80.8262C22.2057 80.972 21.6787 81.7352 21.8244 82.5309C21.9539 83.2378 22.5701 83.7323 23.2637 83.7323Z" fill="white"/>
<path d="M28.7873 61.2752C28.9297 60.4947 29.0533 59.6964 29.1549 58.9021C29.2574 58.0996 28.6902 57.3658 27.8877 57.2632C27.084 57.1605 26.3516 57.7281 26.2488 58.5304C26.1539 59.2734 26.0381 60.0199 25.9051 60.7494C25.76 61.5453 26.2875 62.3082 27.0832 62.4535C27.1721 62.4697 27.2606 62.4775 27.3479 62.4775C28.0418 62.4775 28.6582 61.9822 28.7873 61.2752Z" fill="white"/>
<path d="M22.3565 34.5554C22.6197 35.051 23.1268 35.3334 23.6514 35.3334C23.8832 35.3334 24.1184 35.2783 24.3373 35.1619C25.0518 34.7824 25.3233 33.8957 24.9438 33.181C24.5598 32.458 24.1488 31.7496 23.7225 31.0756C23.2899 30.392 22.385 30.1884 21.7014 30.6209C21.0178 31.0533 20.8141 31.9582 21.2467 32.642C21.6336 33.2537 22.007 33.8974 22.3565 34.5554Z" fill="white"/>
<path d="M26.6834 64.1264C25.9092 63.8922 25.0914 64.3297 24.857 65.1039C24.6398 65.8213 24.4006 66.5338 24.1455 67.2213C23.8643 67.9799 24.2512 68.8229 25.0098 69.1041C25.1777 69.1664 25.3496 69.1959 25.5188 69.1959C26.1139 69.1959 26.6734 68.8305 26.8924 68.2399C27.168 67.4965 27.4266 66.727 27.6609 65.9527C27.8953 65.1783 27.4576 64.3605 26.6834 64.1264Z" fill="white"/>
<path d="M64.3588 15.9215C63.7979 15.5725 63.2531 15.1887 62.7387 14.7801L62.6156 14.6815C61.9871 14.1719 61.0651 14.2686 60.5553 14.8969C60.0459 15.5254 60.1424 16.4479 60.7709 16.9573C60.8197 16.9969 60.8688 17.0362 60.9174 17.0748C61.5184 17.5522 62.1555 18.001 62.8108 18.4088C63.0516 18.5588 63.3192 18.6301 63.5834 18.6301C64.0727 18.6301 64.5508 18.385 64.8285 17.9389C65.2559 17.2522 65.0455 16.3489 64.3588 15.9215Z" fill="white"/>
<path d="M61.2246 85.0107C61.3897 85.0107 61.5572 84.9826 61.7213 84.9236C62.4111 84.675 63.1199 84.4502 63.8273 84.2555C64.6074 84.0408 65.0658 83.2346 64.8512 82.4545C64.6363 81.6746 63.8299 81.2156 63.0502 81.4307C62.2699 81.6453 61.4887 81.8934 60.7277 82.1674C59.9666 82.4418 59.5721 83.2811 59.8463 84.0422C60.0617 84.6392 60.6244 85.0107 61.2246 85.0107Z" fill="white"/>
<path d="M37.0078 14.9779C36.4453 15.4077 35.8469 15.8089 35.2289 16.1704C34.5307 16.579 34.2959 17.4763 34.7043 18.1745C34.977 18.6404 35.4666 18.8997 35.9699 18.8997C36.2213 18.8997 36.4758 18.8351 36.7084 18.6989C37.4297 18.2769 38.1289 17.8079 38.7865 17.3054C39.4295 16.8142 39.5522 15.8948 39.0609 15.2521C38.5699 14.6093 37.6506 14.4866 37.0078 14.9779Z" fill="white"/>
<path d="M39.2621 85.1907C39.8527 85.1907 40.4094 84.8308 40.6317 84.2458C40.9192 83.4896 40.5389 82.6435 39.7826 82.3562C39.0266 82.0689 38.2498 81.8075 37.4736 81.5794C36.6975 81.3511 35.8832 81.7956 35.6553 82.572C35.4272 83.3482 35.8715 84.1622 36.6479 84.3904C37.3518 84.5972 38.0563 84.8341 38.742 85.0946C38.9135 85.1599 39.0893 85.1907 39.2621 85.1907Z" fill="white"/>
<path d="M20.6264 76.5868C20.0301 76.0405 19.1035 76.0809 18.5566 76.6774C18.06 77.2196 17.5397 77.7337 17.0104 78.2048C16.4061 78.7428 16.3523 79.6688 16.8904 80.2729C17.1799 80.5981 17.5816 80.7637 17.985 80.7637C18.3315 80.7637 18.6793 80.6415 18.9584 80.393C19.5615 79.8559 20.1531 79.2717 20.7168 78.6565C21.2635 78.0598 21.2229 77.1333 20.6264 76.5868Z" fill="white"/>
<path d="M21.6643 75.2118C21.908 75.3666 22.1801 75.4407 22.449 75.4407C22.9332 75.4407 23.4072 75.2006 23.6865 74.7617C24.1147 74.0887 24.5272 73.3811 24.9129 72.6586C25.294 71.9449 25.0242 71.0575 24.3106 70.6766C23.5967 70.2955 22.7094 70.5653 22.3285 71.2789C21.9777 71.9362 21.6029 72.5789 21.2145 73.1897C20.7801 73.8723 20.9817 74.7776 21.6643 75.2118Z" fill="white"/>
<path d="M18.2918 82.0748L18.1241 82.1341C17.9711 82.1886 17.8026 82.1437 17.6914 82.0281C17.1309 81.4451 16.2033 81.4267 15.6203 81.9877C15.0371 82.5484 15.0192 83.4757 15.5799 84.0588C16.2086 84.7125 17.0871 85.0875 17.9905 85.0875C18.3719 85.0875 18.7483 85.022 19.1092 84.8931L19.2639 84.8384C20.0272 84.5701 20.4282 83.7338 20.1598 82.9707C19.891 82.2074 19.0549 81.806 18.2918 82.0748Z" fill="white"/>
<path d="M30.1305 83.2788C30.8619 83.3165 31.6016 83.3839 32.3289 83.479C32.3934 83.4874 32.4572 83.4915 32.5205 83.4915C33.2449 83.4915 33.8748 82.954 33.9711 82.2163C34.076 81.4141 33.5108 80.6788 32.7084 80.5741C31.9055 80.469 31.0889 80.3948 30.2815 80.353C29.4748 80.312 28.7848 80.9325 28.743 81.7405C28.7016 82.5483 29.3227 83.237 30.1305 83.2788Z" fill="white"/>
<path d="M33.8746 86.7037C32.1697 86.3504 30.4223 86.1711 28.6805 86.1711C23.7426 86.1711 18.9527 87.5834 14.8291 90.2554C14.6197 90.3912 14.4221 90.3513 14.3229 90.3154C14.2268 90.2808 14.0551 90.1884 13.984 89.9605L10.6578 79.3074C10.5736 79.0379 10.7195 78.7467 10.9975 78.6297C17.4815 75.9 22.3686 67.5023 23.4479 57.2353C23.5324 56.4307 22.9486 55.7099 22.1442 55.6254C21.3393 55.542 20.6188 56.1244 20.5342 56.9291C19.565 66.1498 15.3754 73.608 9.86095 75.9295C8.18458 76.6351 7.32501 78.4627 7.86153 80.1806L11.1877 90.8338C11.5152 91.8826 12.2951 92.698 13.3279 93.0711C13.7182 93.2121 14.1211 93.2816 14.5213 93.2816C15.1858 93.2816 15.843 93.0898 16.4223 92.7144C20.0705 90.3506 24.3094 89.1011 28.6807 89.1011C30.2231 89.1011 31.7707 89.2599 33.2803 89.5726C34.0723 89.7373 34.8479 89.2277 35.0119 88.4355C35.1758 87.6431 34.6668 86.8678 33.8746 86.7037Z" fill="white"/>
<path d="M9.90723 29.8645C15.7232 32.3477 20.0465 40.6129 20.665 50.4316C20.7139 51.2076 21.3586 51.8045 22.1256 51.8045C22.1566 51.8045 22.1877 51.8035 22.2191 51.8016C23.0266 51.7506 23.6398 51.0549 23.5891 50.2475C23.2523 44.9025 21.9049 39.9023 19.6922 35.7873C17.4406 31.6002 14.4551 28.6205 11.0578 27.1701C10.799 27.0596 10.6719 26.7459 10.7746 26.4709L14.9314 15.3426C15.0324 15.0721 15.3264 14.9213 15.6008 15.0006C18.0852 15.7131 20.7186 16.0746 23.4279 16.0746C33.0354 16.0746 39.3869 11.3516 40.4182 3.44043C40.457 3.14453 40.6887 2.92969 40.9693 2.92969H59.0305C59.3113 2.92969 59.543 3.14434 59.5815 3.44023C60.6127 11.3514 66.9643 16.0746 76.5717 16.0746C79.2812 16.0746 81.9146 15.7133 84.399 15.0006C84.6729 14.9215 84.9672 15.0719 85.0684 15.3426L89.2252 26.4709C89.3279 26.7459 89.201 27.0596 88.9422 27.1701C86.5693 28.1832 84.4068 29.9334 82.515 32.3727C82.0193 33.0119 82.1357 33.932 82.7748 34.4279C83.4137 34.9236 84.334 34.8074 84.8301 34.1682C86.4129 32.1273 88.1834 30.6795 90.0924 29.8645C91.7982 29.1361 92.6231 27.1951 91.9695 25.4457L87.8127 14.3174C87.1801 12.6236 85.3266 11.6871 83.591 12.1842C81.3695 12.8215 79.0078 13.1445 76.5717 13.1445C68.4557 13.1445 63.3219 9.46934 62.4867 3.06133C62.2592 1.31621 60.7734 0 59.0305 0H40.9693C39.2266 0 37.7408 1.31621 37.5133 3.06172C36.6779 9.46973 31.5441 13.1449 23.4281 13.1449C20.992 13.1449 18.6305 12.8219 16.4088 12.1846C14.6742 11.6873 12.8199 12.624 12.1871 14.3176L8.03028 25.4461C7.37657 27.1951 8.20118 29.1359 9.90723 29.8645Z" fill="white"/>
<path d="M90.1395 75.9296C87.1498 74.6712 84.4201 71.768 82.4529 67.755C80.3607 63.487 79.2549 58.3458 79.2549 52.8872C79.2549 48.1747 80.1014 43.613 81.7027 39.6952C82.0088 38.9464 81.6498 38.0911 80.9012 37.785C80.1527 37.479 79.2969 37.838 78.991 38.5866C77.2471 42.853 76.3254 47.7981 76.3254 52.8872C76.3254 58.7903 77.5346 64.3774 79.8227 69.0446C82.1012 73.6927 85.3613 77.0968 89.0029 78.6298C89.2809 78.7468 89.4268 79.038 89.3426 79.3075L86.0164 89.9606C85.9453 90.1886 85.7736 90.2809 85.6777 90.3155C85.5779 90.3515 85.3807 90.3913 85.1713 90.2556C81.0477 87.5835 76.2578 86.1712 71.3199 86.1712C63.1826 86.1712 55.4648 90.1118 50.6752 96.7122C50.5121 96.9364 50.2598 97.0704 50 97.0704C49.74 97.0704 49.4879 96.9364 49.325 96.7122C47.0428 93.5673 44.025 90.9446 40.5978 89.1274C39.883 88.7485 38.9965 89.0206 38.6174 89.7352C38.2383 90.4499 38.5105 91.3366 39.2252 91.7157C42.26 93.3249 44.9324 95.6477 46.9537 98.4331C47.666 99.4141 48.8047 100 50 100C51.1953 100 52.334 99.4142 53.0461 98.4329C57.2865 92.5895 64.1178 89.1011 71.3197 89.1011C75.691 89.1011 79.9299 90.3505 83.5781 92.7143C84.5068 93.3159 85.6348 93.4458 86.6729 93.071C87.7055 92.6979 88.4855 91.8825 88.8129 90.8337L92.1391 80.1805C92.6752 78.4628 91.8156 76.6352 90.1395 75.9296Z" fill="white"/>
<path d="M50 45.6582C55.6943 45.6582 60.3271 41.0254 60.3271 35.3311C60.3271 33.6844 59.9377 32.1277 59.2494 30.7449L60.6209 29.3734C61.193 28.8014 61.193 27.8738 60.6209 27.302C60.0486 26.7299 59.1213 26.7299 58.5492 27.302L57.5527 28.2984C55.666 26.2734 52.9791 25.0039 50 25.0039C44.3057 25.0039 39.6729 29.6367 39.6729 35.3311C39.6729 41.0254 44.3057 45.6582 50 45.6582ZM50 27.9336C52.1715 27.9336 54.1272 28.8742 55.4816 30.3693L49.7979 36.0531L48.1645 34.4197C47.5924 33.8477 46.6648 33.8477 46.093 34.4197C45.5209 34.9918 45.5209 35.9193 46.093 36.4912L48.7623 39.1605C49.0369 39.4354 49.4096 39.5896 49.798 39.5896C50.1865 39.5896 50.559 39.4354 50.834 39.1605L57.0129 32.9816C57.2611 33.7203 57.3977 34.51 57.3977 35.3312C57.3977 39.4102 54.0793 42.7287 50.0002 42.7287C45.9213 42.7287 42.6027 39.4102 42.6027 35.3312C42.6027 31.2523 45.9211 27.9336 50 27.9336Z" fill="#AF995C"/>
<path d="M47.1823 54.5898C46.3733 54.5898 45.7174 55.2457 45.7174 56.0547C45.7174 56.8637 46.3733 57.5195 47.1823 57.5195H52.8178C53.627 57.5195 54.2826 56.8637 54.2826 56.0547C54.2826 55.2457 53.627 54.5898 52.8178 54.5898H47.1823Z" fill="white"/>
<path d="M38.95 61.7188C38.95 62.5277 39.6059 63.1836 40.4149 63.1836H59.585C60.3942 63.1836 61.0498 62.5277 61.0498 61.7188C61.0498 60.9098 60.3942 60.2539 59.585 60.2539H40.4149C39.6059 60.2539 38.95 60.9098 38.95 61.7188Z" fill="white"/>
<path d="M61.0498 65.7227C61.0498 64.9137 60.3942 64.2578 59.585 64.2578H40.4149C39.6059 64.2578 38.95 64.9137 38.95 65.7227C38.95 66.5316 39.6059 67.1875 40.4149 67.1875H59.585C60.3942 67.1875 61.0498 66.5316 61.0498 65.7227Z" fill="white"/>
</svg>
