<svg width="100" height="100" viewBox="0 0 100 100" fill="none" xmlns="http://www.w3.org/2000/svg">
<g clip-path="url(#clip0)">
<path d="M97.6082 65.0682V52.1125C97.6082 50.2161 96.7846 48.4178 95.3488 47.1792L93.7662 45.8137C93.1535 45.285 92.734 44.5559 92.5846 43.7606L89.0469 24.9315C88.4686 21.853 85.7752 19.6186 82.6428 19.6186H67.467V17.5131C67.467 15.0899 65.4955 13.1186 63.0725 13.1186H19.7633C18.9541 13.1186 18.2984 13.7745 18.2984 14.5834C18.2984 15.3924 18.9541 16.0483 19.7633 16.0483H63.0725C63.8803 16.0483 64.5373 16.7053 64.5373 17.5131V64.5834H28.6725C26.3551 62.387 23.2293 61.0352 19.7918 61.0352C17.1861 61.0352 14.7598 61.8129 12.7279 63.1448V59.1797C12.7279 56.7565 10.7564 54.7852 8.3334 54.7852H5.32168V17.5129C5.32168 16.7051 5.97871 16.0481 6.78652 16.0481H13.9037C14.7129 16.0481 15.3686 15.3922 15.3686 14.5833C15.3686 13.7743 14.7129 13.1184 13.9037 13.1184H6.78652C4.36348 13.1184 2.39199 15.0897 2.39199 17.5129V65.068C0.973437 65.7977 0 67.2758 0 68.978V72.0704C0 74.4936 1.97148 76.4649 4.39453 76.4649H7.11465C8.28516 82.395 13.5236 86.8815 19.7918 86.8815C26.06 86.8815 31.2982 82.3948 32.4688 76.4649H48.7475C49.5566 76.4649 50.2123 75.809 50.2123 75C50.2123 74.1911 49.5566 73.5352 48.7475 73.5352H32.7041C32.6332 71.3477 32.0168 69.2969 30.9855 67.5131H69.0143C67.983 69.2969 67.3666 71.3477 67.2957 73.5352H54.6066C53.7975 73.5352 53.1418 74.1911 53.1418 75C53.1418 75.809 53.7975 76.4649 54.6066 76.4649H67.5311C68.7016 82.395 73.94 86.8815 80.2082 86.8815C86.4764 86.8815 91.7148 82.3948 92.8854 76.4649H95.6055C98.0285 76.4649 100 74.4936 100 72.0704V68.978C100 67.2758 99.0268 65.7979 97.6082 65.0682ZM94.6785 64.5834H90.202V61.2631C90.202 60.4553 90.859 59.7983 91.6668 59.7983H94.6785V64.5834ZM89.7809 44.6452H75.3242C74.84 44.6452 74.4461 44.2512 74.4461 43.7668V32.2256C74.4461 31.7415 74.84 31.3475 75.3242 31.3475H87.2713C87.2715 31.3475 89.7529 44.5313 89.7809 44.6452ZM67.467 22.5483H82.6428C84.3668 22.5483 85.8492 23.778 86.1676 25.4725L86.7209 28.418H75.3242C73.2246 28.418 71.5164 30.1262 71.5164 32.2258V43.767C71.5164 45.8668 73.2246 47.5751 75.3242 47.5751H91.3768C91.5275 47.7346 93.435 49.3975 93.435 49.3975C94.2254 50.0793 94.6785 51.0692 94.6785 52.1127V56.8686H91.6668C89.2438 56.8686 87.2723 58.8399 87.2723 61.2631V63.1448C85.2404 61.8129 82.8141 61.0352 80.2084 61.0352C76.7709 61.0352 73.6451 62.387 71.3275 64.5834H67.4668V22.5483H67.467ZM9.79824 59.1797V64.5834H5.32168V57.7149H8.3334C9.14121 57.7149 9.79824 58.3719 9.79824 59.1797ZM2.92969 72.0704V68.978C2.92969 68.1702 3.58672 67.5131 4.39453 67.5131H8.59785C7.5666 69.2969 6.9502 71.3477 6.8793 73.5352H4.39453C3.58672 73.5352 2.92969 72.8782 2.92969 72.0704ZM19.7918 83.9518C14.2812 83.9518 9.79824 79.4686 9.79824 73.9583C9.79824 68.4479 14.2812 63.9649 19.7918 63.9649C25.3021 63.9649 29.7852 68.4479 29.7852 73.9584C29.7852 79.469 25.3021 83.9518 19.7918 83.9518ZM80.2084 83.9518C74.6979 83.9518 70.2148 79.4686 70.2148 73.9583C70.2148 68.4479 74.6979 63.9647 80.2084 63.9647C85.7189 63.9647 90.202 68.4477 90.202 73.9583C90.202 79.4688 85.7189 83.9518 80.2084 83.9518ZM97.0703 72.0704C97.0703 72.8782 96.4133 73.5352 95.6055 73.5352H93.1209C93.05 71.3477 92.4336 69.2969 91.4023 67.5131H95.6055C96.4133 67.5131 97.0703 68.1702 97.0703 68.978V72.0704Z" fill="white"/>
<path d="M19.7918 67.9103C16.4568 67.9103 13.7435 70.6236 13.7435 73.9583C13.7435 77.2933 16.4568 80.0066 19.7918 80.0066C23.1265 80.0066 25.8398 77.2933 25.8398 73.9583C25.8398 70.6236 23.1265 67.9103 19.7918 67.9103ZM19.7918 77.0769C18.0722 77.0769 16.6732 75.6778 16.6732 73.9583C16.6732 72.2388 18.0722 70.84 19.7918 70.84C21.5113 70.84 22.9101 72.239 22.9101 73.9583C22.9101 75.678 21.5113 77.0769 19.7918 77.0769Z" fill="white"/>
<path d="M80.2084 67.9103C76.8734 67.9103 74.1602 70.6236 74.1602 73.9583C74.1602 77.2933 76.8734 80.0066 80.2084 80.0066C83.5434 80.0066 86.2566 77.2933 86.2566 73.9583C86.2566 70.6236 83.5434 67.9103 80.2084 67.9103ZM80.2084 77.0769C78.4889 77.0769 77.0898 75.6778 77.0898 73.9583C77.0898 72.2388 78.4889 70.84 80.2084 70.84C81.9279 70.84 83.327 72.239 83.327 73.9583C83.327 75.678 81.9279 77.0769 80.2084 77.0769Z" fill="white"/>
<path d="M35.8133 50.3622H50.6451C52.677 50.3622 54.3301 48.7092 54.3301 46.6772V37.8797C54.3301 36.5598 53.7321 35.3385 52.6891 34.5293L45.8291 29.2065C44.2985 28.0188 42.1602 28.0184 40.6295 29.2063L33.7696 34.5293C32.9873 35.1364 32.4551 35.9752 32.2381 36.9137H22.3307C21.5215 36.9137 20.8658 37.5696 20.8658 38.3786C20.8658 39.1875 21.5215 39.8434 22.3307 39.8434H32.1283V43.1637H24.1936C23.3844 43.1637 22.7287 43.8196 22.7287 44.6286C22.7287 45.4375 23.3844 46.0934 24.1936 46.0934H32.1283V46.6774C32.1285 48.7092 33.7815 50.3622 35.8133 50.3622ZM35.0582 37.8799C35.0582 37.4719 35.2432 37.0944 35.5656 36.844L42.4256 31.5211C42.6623 31.3375 42.9457 31.2458 43.2293 31.2458C43.5129 31.2458 43.7965 31.3375 44.033 31.5211L50.8932 36.844C51.2155 37.0942 51.4006 37.4717 51.4006 37.8799V46.6774C51.4006 47.0938 51.0619 47.4327 50.6453 47.4327H44.6942V42.5749C44.6942 41.7659 44.0385 41.11 43.2293 41.11C42.4201 41.11 41.7645 41.7659 41.7645 42.5749V47.4327H35.8133C35.3969 47.4327 35.0582 47.094 35.0582 46.6774V37.8799Z" fill="#AF995C"/>
</g>
<defs>
<clipPath id="clip0">
<rect width="100" height="100" fill="white"/>
</clipPath>
</defs>
</svg>
