<svg width="100" height="100" viewBox="0 0 100 100" fill="none" xmlns="http://www.w3.org/2000/svg">
<g clip-path="url(#clip0)">
<path d="M8.3334 100H65C69.6002 99.9944 73.3279 96.2667 73.3334 91.6666V15C73.3279 10.3998 69.6002 6.67214 65 6.66656H63.3334V1.66668C63.3334 0.74616 62.587 0 61.6667 0C60.7462 0 60 0.74616 60 1.66668V6.66672H46.6667V1.66668C46.6666 0.74616 45.9204 0 45 0C44.0795 0 43.3334 0.74616 43.3334 1.66668V6.66672H30.0001V1.66668C29.9999 0.74616 29.2538 0 28.3332 0C27.4127 0 26.6666 0.74616 26.6666 1.66668V6.66672H13.3333V1.66668C13.3333 0.74616 12.5871 0 11.6666 0C10.7461 0 9.99992 0.74616 9.99992 1.66668V6.66672H8.3334C3.73326 6.67214 0.00557692 10.4 0 15V91.6666C0.00557692 96.2667 3.73326 99.9944 8.3334 100ZM3.33336 15C3.33336 12.2386 5.572 9.99992 8.3334 9.99992H10.0001V11.9733C7.70419 12.7851 6.32702 15.1328 6.73873 17.5329C7.1506 19.9329 9.23162 21.6874 11.6668 21.6874C14.1019 21.6874 16.1829 19.9329 16.5948 17.5329C17.0067 15.1328 15.6293 12.7851 13.3334 11.9733V9.99992H26.6667V11.9733C24.3708 12.7851 22.9937 15.1328 23.4054 17.5329C23.8172 19.9329 25.8983 21.6874 28.3334 21.6874C30.7685 21.6874 32.8496 19.9329 33.2614 17.5329C33.6733 15.1328 32.296 12.7851 30.0001 11.9733V9.99992H43.3334V11.9733C41.0375 12.7851 39.6603 15.1328 40.072 17.5329C40.4839 19.9329 42.5649 21.6874 45 21.6874C47.4352 21.6874 49.5162 19.9329 49.9281 17.5329C50.3399 15.1328 48.9626 12.7851 46.6667 11.9733V9.99992H60V11.9733C57.7041 12.7851 56.3269 15.1328 56.7386 17.5329C57.1504 19.9329 59.2315 21.6874 61.6667 21.6874C64.1018 21.6874 66.1828 19.9329 66.5947 17.5329C67.0066 15.1328 65.6292 12.7851 63.3334 11.9733V9.99992H65C67.7614 9.99992 70.0001 12.2386 70.0001 15V91.6666C70.0001 94.428 67.7614 96.6666 65 96.6666H8.3334C5.572 96.6666 3.33336 94.428 3.33336 91.6666V15ZM11.6666 15C12.5871 15 13.3333 15.7461 13.3333 16.6666C13.3333 17.5872 12.5871 18.3333 11.6666 18.3333C10.7461 18.3333 9.99992 17.5872 9.99992 16.6666C9.99992 15.7461 10.7462 15 11.6666 15ZM28.3332 15C29.2538 15 29.9999 15.7461 29.9999 16.6666C29.9999 17.5872 29.2538 18.3333 28.3332 18.3333C27.4127 18.3333 26.6666 17.5872 26.6666 16.6666C26.6667 15.7461 27.4129 15 28.3332 15ZM45 15C45.9206 15 46.6667 15.7461 46.6667 16.6666C46.6667 17.5872 45.9206 18.3333 45 18.3333C44.0795 18.3333 43.3334 17.5872 43.3334 16.6666C43.3334 15.7461 44.0795 15 45 15ZM61.6667 15C62.5872 15 63.3334 15.7461 63.3334 16.6666C63.3334 17.5872 62.5872 18.3333 61.6667 18.3333C60.7462 18.3333 60 17.5872 60 16.6666C60 15.7461 60.7462 15 61.6667 15Z" fill="white"/>
<path fill-rule="evenodd" clip-rule="evenodd" d="M6.66671 28.3332H8.33339C9.25391 28.3332 10.0001 27.5871 10.0001 26.6666C10.0001 25.746 9.25391 24.9999 8.33339 24.9999H6.66671C5.74619 24.9999 5.00003 25.746 5.00003 26.6666C5.00003 27.5871 5.74619 28.3332 6.66671 28.3332Z" fill="#AF995C"/>
<path fill-rule="evenodd" clip-rule="evenodd" d="M15 28.3332H16.6666C17.5872 28.3332 18.3333 27.5871 18.3333 26.6666C18.3333 25.746 17.5872 24.9999 16.6666 24.9999H15C14.0794 24.9999 13.3333 25.746 13.3333 26.6666C13.3333 27.5871 14.0794 28.3332 15 28.3332Z" fill="#AF995C"/>
<path fill-rule="evenodd" clip-rule="evenodd" d="M23.3333 28.3332H25C25.9205 28.3332 26.6667 27.5871 26.6667 26.6666C26.6667 25.746 25.9205 24.9999 25 24.9999H23.3333C22.4128 24.9999 21.6667 25.746 21.6667 26.6666C21.6667 27.5871 22.4128 28.3332 23.3333 28.3332Z" fill="#AF995C"/>
<path fill-rule="evenodd" clip-rule="evenodd" d="M31.6666 28.3332H33.3333C34.2538 28.3332 35 27.5871 35 26.6666C35 25.746 34.2538 24.9999 33.3333 24.9999H31.6666C30.7461 24.9999 29.9999 25.746 29.9999 26.6666C29.9999 27.5871 30.7462 28.3332 31.6666 28.3332Z" fill="#AF995C"/>
<path fill-rule="evenodd" clip-rule="evenodd" d="M40 28.3332H41.6667C42.5872 28.3332 43.3334 27.5871 43.3334 26.6666C43.3334 25.746 42.5872 24.9999 41.6667 24.9999H40C39.0795 24.9999 38.3333 25.746 38.3333 26.6666C38.3333 27.5871 39.0795 28.3332 40 28.3332Z" fill="#AF995C"/>
<path fill-rule="evenodd" clip-rule="evenodd" d="M48.3332 28.3332H49.9999C50.9204 28.3332 51.6666 27.5871 51.6666 26.6666C51.6666 25.746 50.9204 24.9999 49.9999 24.9999H48.3332C47.4127 24.9999 46.6666 25.746 46.6666 26.6666C46.6666 27.5871 47.4129 28.3332 48.3332 28.3332Z" fill="#AF995C"/>
<path fill-rule="evenodd" clip-rule="evenodd" d="M56.6666 28.3332H58.3333C59.2538 28.3332 60 27.5871 60 26.6666C60 25.746 59.2538 24.9999 58.3333 24.9999H56.6666C55.7461 24.9999 54.9999 25.746 54.9999 26.6666C54.9999 27.5871 55.7461 28.3332 56.6666 28.3332Z" fill="#AF995C"/>
<path fill-rule="evenodd" clip-rule="evenodd" d="M64.9999 28.3332H66.6665C67.5871 28.3332 68.3332 27.5871 68.3332 26.6666C68.3332 25.746 67.5871 24.9999 66.6665 24.9999H64.9999C64.0793 24.9999 63.3332 25.746 63.3332 26.6666C63.3332 27.5871 64.0795 28.3332 64.9999 28.3332Z" fill="#AF995C"/>
<path fill-rule="evenodd" clip-rule="evenodd" d="M8.33337 36.6667C8.33337 37.5872 9.07953 38.3334 10.0001 38.3334H20C20.9205 38.3334 21.6666 37.5872 21.6666 36.6667C21.6666 35.7462 20.9205 35 20 35H9.99989C9.07953 35 8.33337 35.7462 8.33337 36.6667Z" fill="white"/>
<path fill-rule="evenodd" clip-rule="evenodd" d="M25 36.6667C25 37.5872 25.7462 38.3334 26.6667 38.3334H63.3334C64.2539 38.3334 65 37.5872 65 36.6667C65 35.7462 64.2539 35 63.3334 35H26.6667C25.7462 35 25 35.7462 25 36.6667Z" fill="white"/>
<path fill-rule="evenodd" clip-rule="evenodd" d="M63.3333 45H9.9999C9.07938 45 8.33322 45.7462 8.33322 46.6667C8.33322 47.5872 9.07938 48.3334 9.9999 48.3334H63.3332C64.2537 48.3334 64.9999 47.5872 64.9999 46.6667C64.9999 45.7462 64.2537 45 63.3333 45Z" fill="white"/>
<path fill-rule="evenodd" clip-rule="evenodd" d="M9.9999 58.3334H28.3332C29.2537 58.3334 29.9999 57.5872 29.9999 56.6667C29.9999 55.7462 29.2537 55 28.3332 55H9.9999C9.07938 55 8.33322 55.7462 8.33322 56.6667C8.33339 57.5872 9.07955 58.3334 9.9999 58.3334Z" fill="white"/>
<path fill-rule="evenodd" clip-rule="evenodd" d="M43.3333 64.9999H9.9999C9.07938 64.9999 8.33322 65.746 8.33322 66.6666C8.33322 67.5871 9.07938 68.3332 9.9999 68.3332H43.3332C44.2537 68.3332 44.9999 67.5871 44.9999 66.6666C45 65.7462 44.2537 64.9999 43.3333 64.9999Z" fill="white"/>
<path d="M96.6666 23.3334V20C96.6666 17.2386 94.428 15 91.6666 15H84.9999C82.2385 15 79.9998 17.2386 79.9998 20V23.3334C78.159 23.3334 76.6665 24.8257 76.6665 26.6668V33.3335C76.6701 34.5191 77.3052 35.6128 78.3332 36.2035V83.3334C78.3323 83.5857 78.3893 83.8348 78.4998 84.0617L85.3497 98.1567C85.9158 99.2893 87.0747 100.003 88.3408 99.9999C89.6069 99.9963 90.7618 99.2759 91.3215 98.14L98.1665 84.0617C98.2771 83.8348 98.334 83.5857 98.3332 83.3334V36.2035C99.3611 35.6128 99.9962 34.5191 99.9998 33.3335V26.6668C100 24.8257 98.5075 23.3334 96.6666 23.3334ZM83.3332 20C83.3332 19.0795 84.0794 18.3334 84.9999 18.3334H91.6666C92.5871 18.3334 93.3333 19.0795 93.3333 20V23.3334H83.3334V20H83.3332ZM80 26.6668H96.6666V33.3335H80V26.6668ZM95 81.6667H89.9999V48.3333C89.9999 47.4128 89.2538 46.6666 88.3332 46.6666C87.4127 46.6666 86.6666 47.4128 86.6666 48.3333V81.6666H81.6665V36.6667H86.6666V41.6667C86.6666 42.5872 87.4127 43.3334 88.3332 43.3334C89.2538 43.3334 89.9999 42.5872 89.9999 41.6667V36.6667H95V81.6667ZM82.6666 84.9999H93.9999L91.5749 90H85.0932L82.6666 84.9999ZM86.7166 93.3333H89.9666L88.3416 96.6833L86.7166 93.3333Z" fill="white"/>
</g>
<defs>
<clipPath id="clip0">
<rect width="100" height="100" fill="white"/>
</clipPath>
</defs>
</svg>
