<svg width="70" height="70" viewBox="0 0 70 70" fill="none" xmlns="http://www.w3.org/2000/svg">
<g clip-path="url(#clip0)" filter="url(#filter0_b)">
<path d="M38.1358 0H31.91C28.4596 0 25.1731 1.3743 22.6562 3.86968C20.12 6.3842 18.7233 9.69313 18.7233 13.1834L18.6775 26.9051C18.6756 27.4716 19.1332 27.9322 19.6995 27.934H19.703C20.2678 27.934 20.7265 27.477 20.7285 26.9119L20.7548 19.0223H39.4999C40.8309 19.0418 40.8302 16.9516 39.4999 16.9713H35.9999V10.3293C35.9999 9.76287 35.5408 9.30385 34.9744 9.30385C34.4079 9.30385 33.9489 9.76287 33.9489 10.3293V16.9713H20.7617L20.7743 13.1868C20.7743 7.15058 25.8738 2.05099 31.9099 2.05099H33.9487V5.43253C33.9487 5.99902 34.4077 6.45803 34.9742 6.45803C35.5407 6.45803 35.9997 5.99902 35.9997 5.43253V2.05099H38.1356C44.2759 2.05099 49.2713 7.04653 49.2713 13.1868V16.9713H44.3966C43.0657 16.9517 43.0663 19.042 44.3966 19.0223H49.2713V37.0625C49.2713 42.9581 44.6507 47.7905 38.8507 48.1119V44.5066C38.8507 42.4333 37.1639 40.7464 35.0906 40.7464C33.0173 40.7464 31.3304 42.4333 31.3304 44.5066V48.1125C25.4556 47.7948 20.7741 42.9607 20.7741 37.0625V31.9452C20.7741 31.3787 20.3151 30.9197 19.7486 30.9197C19.1821 30.9197 18.7231 31.3787 18.7231 31.9452V37.0625C18.7231 44.0914 24.324 49.8464 31.3304 50.1663V57.2375L27.9047 53.8118C26.4385 52.3456 24.053 52.3457 22.5868 53.8119C21.1209 55.278 21.1209 57.6635 22.5868 59.1297L32.3632 68.9061C33.7629 70.3647 36.2814 70.3647 37.6811 68.906L41.4925 65.0944C41.893 64.6939 41.893 64.0446 41.4924 63.6442C41.0921 63.2439 40.4427 63.2437 40.0422 63.6444L36.2308 67.4558C35.5949 68.1188 34.4496 68.1188 33.8136 67.4558L24.0372 57.6795C23.3708 57.0131 23.3708 55.9285 24.0372 55.2622C24.6733 54.5991 25.8183 54.5991 26.4544 55.2622L31.6159 60.4239C32.2346 61.0756 33.3988 60.5818 33.3814 59.684V44.5067C33.3814 43.5642 34.1481 42.7975 35.0906 42.7975C36.0331 42.7975 36.7997 43.5642 36.7997 44.5067V59.5473C36.7824 60.4452 37.9464 60.9388 38.5651 60.2872L43.59 55.2622C44.2563 54.5957 45.3409 54.5958 46.0072 55.2621C46.6736 55.9285 46.6736 57.0131 46.0072 57.6794L43.4264 60.2602C43.0259 60.6609 43.0259 61.3101 43.4264 61.7106C43.827 62.1109 44.476 62.1109 44.8767 61.7106L47.4576 59.1295C48.9236 57.6634 48.9236 55.2778 47.4576 53.8116C45.9915 52.3455 43.6059 52.3455 42.1397 53.8116L38.8507 57.1006V50.1665C42.1266 50.0166 45.1784 48.6718 47.5008 46.3411C49.965 43.8679 51.3223 40.5726 51.3223 37.0625V13.1868C51.3224 5.91561 45.4069 0 38.1358 0V0Z" fill="white" fill-opacity="0.4"/>
</g>
<defs>
<filter id="filter0_b" x="-15" y="-15" width="100" height="100" filterUnits="userSpaceOnUse" color-interpolation-filters="sRGB">
<feFlood flood-opacity="0" result="BackgroundImageFix"/>
<feGaussianBlur in="BackgroundImage" stdDeviation="7.5"/>
<feComposite in2="SourceAlpha" operator="in" result="effect1_backgroundBlur"/>
<feBlend mode="normal" in="SourceGraphic" in2="effect1_backgroundBlur" result="shape"/>
</filter>
<clipPath id="clip0">
<rect width="70" height="70" fill="white"/>
</clipPath>
</defs>
</svg>
