<svg width="100" height="100" viewBox="0 0 100 100" fill="none" xmlns="http://www.w3.org/2000/svg">
<g clip-path="url(#clip0)">
<path d="M85.5654 32.9425H77.3297C76.5207 32.9425 75.8648 33.5984 75.8648 34.4073C75.8648 35.2163 76.5207 35.8722 77.3297 35.8722H85.5654C86.3744 35.8722 87.0303 35.2163 87.0303 34.4073C87.0303 33.5984 86.3744 32.9425 85.5654 32.9425Z" fill="white"/>
<path d="M85.5654 26.9808H77.3297C76.5207 26.9808 75.8648 27.6367 75.8648 28.4457C75.8648 29.2547 76.5207 29.9105 77.3297 29.9105H85.5654C86.3744 29.9105 87.0303 29.2547 87.0303 28.4457C87.0303 27.6367 86.3744 26.9808 85.5654 26.9808Z" fill="white"/>
<path d="M19.0518 71.9945C18.2428 71.9945 17.5869 72.6504 17.5869 73.4593V77.1978C17.5869 78.0068 18.2428 78.6627 19.0518 78.6627C19.8608 78.6627 20.5166 78.0068 20.5166 77.1978V73.4593C20.5166 72.6504 19.8608 71.9945 19.0518 71.9945Z" fill="white"/>
<path d="M98.4893 62.8885H98.4908C99.299 62.8885 99.9992 62.2336 100 61.425V17.3719C100 13.5352 96.8789 10.4139 93.0422 10.4139H89.332V8.04124C89.332 6.04651 87.7092 4.42346 85.7145 4.42346H77.1813C75.1865 4.42346 73.5637 6.04651 73.5637 8.04124V10.4139H16.5715C11.5002 10.4139 7.37422 14.5399 7.37422 19.6112V42.2668C7.37422 45.3541 9.53691 47.9442 12.4264 48.6063V50.7959C12.4264 52.8026 14.059 54.4352 16.0656 54.4352H17.5871V57.9354C17.5871 58.7444 18.243 59.4002 19.052 59.4002C19.8609 59.4002 20.5168 58.7444 20.5168 57.9354V54.4352H22.0383C24.0449 54.4352 25.6775 52.8026 25.6775 50.7959V48.6022C27.6725 48.1395 29.3627 46.7545 30.1885 44.8139L31.3133 42.1705C32.0098 40.5336 33.6094 39.4758 35.3885 39.4758H58.4428C60.7055 39.4758 62.5463 41.3166 62.5463 43.5793V66.1914C62.5463 68.4541 60.7055 70.2949 58.4428 70.2949H57.1395V68.5709C57.1395 65.7102 54.8119 63.3828 51.9512 63.3828H13.9537C11.3313 63.3828 9.19766 65.5164 9.19766 68.1389V70.2951H5.37617C2.41172 70.2949 0 72.7067 0 75.6711V85.9088C0 91.194 4.27949 95.5766 9.66777 95.5766H90.6252C95.7504 95.5766 99.9943 91.4071 100 86.2817V68.3119C100.001 67.5029 99.2943 66.8465 98.4854 66.8457C98.4848 66.8457 98.4844 66.8457 98.4838 66.8457C97.6754 66.8457 97.0197 67.5006 97.0189 68.3092L97.0008 86.2787C96.9969 89.7903 94.1367 92.6469 90.6252 92.6469H9.66777C5.91035 92.6469 2.92969 89.5905 2.92969 85.9088V75.6711C2.92969 74.3221 4.02715 73.2246 5.37617 73.2246H9.19766V82.5186C9.19766 85.141 11.3313 87.2746 13.9537 87.2746H44.9361C47.5586 87.2746 49.6922 85.141 49.6922 82.5186V73.2246H58.4424C62.3205 73.2246 65.4756 70.0695 65.4756 66.1914V43.5793C65.4756 39.7012 62.3205 36.5461 58.4424 36.5461H36.8529C36.8527 34.4489 36.8523 30.3674 36.8521 26.1164C36.8521 25.3074 36.1963 24.6516 35.3873 24.6516C34.5783 24.6516 33.9225 25.3074 33.9225 26.1164L33.9232 36.6965C31.5787 37.1709 29.5791 38.7627 28.6172 41.0233L27.4924 43.6666C26.9309 44.9864 25.6424 45.8395 24.2086 45.8418C24.2043 45.8418 24.1994 45.842 24.1949 45.842H13.8789C11.9074 45.842 10.3035 44.2381 10.3035 42.2666V19.6112C10.3035 16.1551 13.1152 13.3436 16.5711 13.3436H33.9219L33.9221 19.2684C33.9221 20.0774 34.5779 20.7332 35.3869 20.7332C36.1959 20.7332 36.8518 20.0774 36.8518 19.2684L36.8516 13.3438H93.042C95.2633 13.3438 97.0703 15.1508 97.0703 17.3707L97.0258 61.4223C97.025 62.2313 97.6803 62.8875 98.4893 62.8885ZM46.7627 82.5186C46.7627 83.5256 45.9434 84.3449 44.9363 84.3449H20.5166V84.052C20.5166 83.243 19.8607 82.5871 19.0518 82.5871C18.2428 82.5871 17.5869 83.243 17.5869 84.052V84.3449H13.9537C12.9467 84.3449 12.1273 83.5256 12.1273 82.5186V68.1387C12.1273 67.1317 12.9467 66.3123 13.9537 66.3123H17.5869V66.6053C17.5869 67.4143 18.2428 68.0701 19.0518 68.0701C19.8607 68.0701 20.5166 67.4143 20.5166 66.6053V66.3123H47.2805C46.9488 66.9955 46.7627 67.7617 46.7627 68.5707V82.5186ZM49.6924 68.5709C49.6924 67.3256 50.7057 66.3125 51.9508 66.3125C53.1961 66.3125 54.2094 67.3258 54.2094 68.5709V70.2949H49.6924V68.5709ZM22.0381 51.5055H16.0654C15.6742 51.5055 15.3559 51.1871 15.3559 50.7959V48.7719H22.7479V50.7959C22.7477 51.1873 22.4293 51.5055 22.0381 51.5055ZM76.493 8.04124C76.493 7.66194 76.8016 7.35315 77.1809 7.35315H85.7141C86.0934 7.35315 86.402 7.66194 86.402 8.04124V10.4139H76.4928V8.04124H76.493Z" fill="white"/>
<path d="M93.1127 40.8739V21.9791C93.1127 19.7186 91.2736 17.8795 89.0131 17.8795H73.8818C71.6213 17.8795 69.7822 19.7186 69.7822 21.9791V40.8739C69.7822 43.1344 71.6213 44.9735 73.8818 44.9735H89.0131C91.2736 44.9737 93.1127 43.1346 93.1127 40.8739ZM90.183 40.8739C90.183 41.519 89.6582 42.0438 89.0131 42.0438H73.8818C73.2367 42.0438 72.7119 41.519 72.7119 40.8739V21.9791C72.7119 21.334 73.2367 20.8092 73.8818 20.8092H89.0131C89.6582 20.8092 90.183 21.334 90.183 21.9791V40.8739Z" fill="white"/>
<path d="M81.4477 56.4708C76.8285 56.4708 73.0707 60.2286 73.0707 64.8478C73.0707 69.4669 76.8285 73.2247 81.4477 73.2247C86.0668 73.2247 89.8246 69.4669 89.8246 64.8478C89.8246 60.2286 86.0668 56.4708 81.4477 56.4708ZM81.4477 70.295C78.4439 70.295 76.0004 67.8515 76.0004 64.8478C76.0004 61.8441 78.4439 59.4005 81.4477 59.4005C84.4514 59.4005 86.8949 61.8441 86.8949 64.8478C86.8949 67.8515 84.4514 70.295 81.4477 70.295Z" fill="#AF995C"/>
</g>
<defs>
<clipPath id="clip0">
<rect width="100" height="100" fill="white"/>
</clipPath>
</defs>
</svg>
